 <svg  version="1.0" xmlns="http://www.w3.org/2000/svg"  width="300.000000pt" height="215.000000pt" viewBox="0 0 300.000000 215.000000"  preserveAspectRatio="xMidYMid meet">  <g transform="translate(0.000000,215.000000) scale(0.100000,-0.100000)" fill="#ef6001" stroke="none"> <path d="M1660 1594 c-138 -28 -261 -94 -373 -203 -147 -143 -228 -304 -231 -461 -1 -106 20 -171 76 -234 77 -88 173 -126 320 -126 186 0 305 50 485 207 41 36 75 64 77 62 2 -2 11 -28 21 -57 52 -162 187 -242 341 -203 43 11 134 66 134 80 0 3 -30 6 -68 7 -79 0 -138 26 -174 76 -12 18 -44 96 -69 173 -53 159 -56 132 31 265 47 72 74 115 188 298 l52 82 -129 0 -128 0 -68 -110 c-37 -60 -69 -110 -71 -110 -2 0 -15 24 -29 54 -37 78 -104 149 -167 176 -52 23 -162 35 -218 24z m76 -104 c25 0 93 -71 118 -123 13 -29 35 -99 49 -155 l26 -104 -74 -101 c-187 -260 -371 -374 -495 -309 -48 26 -81 89 -87 166 -14 167 130 462 281 576 50 38 122 63 154 54 8 -2 20 -4 28 -4z"/> </g> </svg> 