<?xml version="1.0" standalone="no"?>
<!DOCTYPE svg PUBLIC "-//W3C//DTD SVG 20010904//EN"
 "http://www.w3.org/TR/2001/REC-SVG-20010904/DTD/svg10.dtd">
<svg version="1.0" xmlns="http://www.w3.org/2000/svg"
 width="299.000000pt" height="168.000000pt" viewBox="0 0 299.000000 168.000000"
 preserveAspectRatio="xMidYMid meet">
<metadata>
Created by potrace 1.10, written by Peter Selinger 2001-2011
</metadata>
<g transform="translate(0.000000,168.000000) scale(0.100000,-0.100000)"
fill="#000000" stroke="none">
<path d="M880 979 c-60 -25 -68 -43 -68 -149 -1 -124 0 -125 130 -129 106 -2
148 10 169 52 6 12 13 24 15 26 2 2 15 -11 29 -28 61 -72 227 -76 285 -6 12
14 14 13 24 -7 10 -20 21 -23 75 -26 38 -2 68 2 77 9 19 16 18 48 -3 73 -10
11 7 0 37 -25 30 -24 57 -47 58 -51 7 -15 59 -8 75 10 13 14 17 38 17 90 0 39
4 74 10 77 15 9 63 -20 88 -54 26 -36 27 -39 5 -63 -13 -15 -14 -23 -5 -43 11
-24 16 -25 92 -25 76 0 81 1 92 25 10 21 8 29 -10 48 l-22 23 31 37 c16 20 42
42 57 49 33 16 42 56 16 75 -25 18 -118 17 -134 -2 -10 -12 -15 -12 -33 0 -17
10 -58 14 -160 14 -133 0 -139 -1 -159 -24 l-21 -24 -29 24 c-50 42 -143 32
-161 -17 -3 -9 -12 -6 -29 10 -48 44 -144 55 -213 23 -47 -21 -95 -73 -95
-103 0 -12 -3 -18 -7 -14 -4 3 -6 28 -4 54 3 54 -11 72 -50 71 -13 0 -53 2
-89 5 -37 4 -76 1 -90 -5z m178 -30 c31 1 32 0 32 -39 0 -44 -21 -55 -40 -20
-21 40 -155 48 -155 9 0 -10 19 -16 69 -22 107 -11 145 -38 132 -91 -12 -48
-120 -73 -193 -45 -19 7 -29 7 -31 0 -2 -6 -10 -11 -18 -11 -10 0 -14 13 -14
45 0 51 13 57 41 21 33 -42 165 -48 157 -8 -2 13 -22 20 -80 29 -91 13 -116
25 -124 58 -13 52 51 88 136 80 30 -4 70 -6 88 -6z m332 -11 c60 -31 81 -82
57 -134 -24 -50 -70 -74 -140 -74 -105 0 -157 39 -157 116 0 95 133 146 240
92z m268 -54 l73 -67 -3 49 c-3 42 -6 49 -25 52 -13 2 -23 10 -23 18 0 11 15
14 65 14 51 0 65 -3 65 -15 0 -8 -9 -15 -20 -15 -19 0 -20 -7 -20 -90 0 -87
-1 -90 -22 -90 -14 0 -52 27 -100 70 -42 39 -78 70 -80 70 -1 0 -1 -25 0 -55
3 -46 7 -55 23 -55 10 0 19 -7 19 -15 0 -12 -13 -15 -60 -15 -47 0 -60 3 -60
15 0 9 7 15 16 13 14 -3 17 8 17 72 0 69 -1 75 -21 78 -12 2 -22 10 -22 18 0
10 14 14 53 14 50 0 55 -3 125 -66z m322 52 c0 -8 -6 -16 -14 -18 -11 -2 -8
-10 11 -32 l25 -29 26 28 c18 18 23 29 15 32 -7 3 -13 11 -13 19 0 10 15 14
60 14 47 0 60 -3 60 -15 0 -8 -9 -15 -19 -15 -11 0 -40 -23 -65 -52 -50 -57
-60 -98 -26 -98 11 0 20 -7 20 -15 0 -12 -14 -15 -70 -15 -56 0 -70 3 -70 15
0 8 9 15 20 15 34 0 24 39 -26 96 -26 31 -54 54 -65 54 -10 0 -19 7 -19 15 0
12 15 15 75 15 58 0 75 -3 75 -14z m-490 -96 c0 -27 -3 -51 -7 -53 -5 -3 -8
21 -8 53 0 32 3 56 8 53 4 -2 7 -26 7 -53z"/>
<path d="M1265 921 c-29 -12 -44 -33 -51 -69 -13 -63 85 -119 137 -79 21 16
39 51 39 76 0 49 -76 93 -125 72z m83 -43 c17 -17 15 -48 -5 -70 -18 -20 -63
-24 -81 -6 -16 16 -15 75 1 81 23 10 73 7 85 -5z"/>
</g>
</svg>
